<?xml version="1.0" encoding="UTF-8" standalone="no"?>
<svg xmlns="http://www.w3.org/2000/svg" xmlns:xlink="http://www.w3.org/1999/xlink" xmlns:serif="http://www.serif.com/" width="100%" height="100%" viewBox="0 0 53 63" version="1.1" xml:space="preserve" style="fill-rule:evenodd;clip-rule:evenodd;stroke-linejoin:round;stroke-miterlimit:2;">
    <g transform="matrix(1,0,0,1,-428.903,-13.8934)">
        <g transform="matrix(1.00178,0,0,1,176.401,7.32475)">
            <g transform="matrix(1.51041,0,0,1.51309,239.106,-37.4337)">
                <path d="M8.572,29.081C11.826,31.154 21.335,51.49 22.587,57.209C22.399,62.145 21.836,65.421 20.96,70.121L32.033,70.121C31.032,64.639 30.407,60.44 30.282,54.626C32.909,46.325 37.914,34.246 43.107,29.081L31.658,29.081C34.849,34.246 32.972,43.558 29.531,52.781C26.528,46.605 21.961,37.102 22.461,29.081L8.572,29.081Z" style="fill:rgb(110,156,188);fill-rule:nonzero;"></path>
            </g>
        </g>
    </g>
</svg>
