<?xml version="1.0" encoding="UTF-8"?>
<svg xmlns="http://www.w3.org/2000/svg" width="152" height="80" viewBox="0 0 152 80" fill="none">
  <path fill-rule="evenodd" clip-rule="evenodd" d="M136.694 65.8057H13.6037L2.68359 76.8913H147.614L136.694 65.8057Z" fill="#6E9CBC"></path>
  <path fill-rule="evenodd" clip-rule="evenodd" d="M136.694 65.8057H13.6037L2.68359 76.8913H147.614L136.694 65.8057ZM136.633 65.9507L147.267 76.7462H3.03036L13.6644 65.9507H136.633Z" fill="black"></path>
  <path fill-rule="evenodd" clip-rule="evenodd" d="M105.803 74.5031L104.984 65.8059H100.094L99.2381 64.6582L97.8913 65.8059L96.1818 66.3086L94.4408 65.8059H49.5515L48.006 66.2947L45.6014 65.8059H23.9808L14.5059 74.5031H105.803Z" fill="#6E9CBC"></path>
  <path d="M16.6678 3.6582C17.2248 3.6582 17.802 3.70781 18.4025 3.80673C19.0029 3.90594 19.4758 4.04197 19.8239 4.21514C19.9341 4.25227 20.0066 4.2987 20.0356 4.35439C20.0675 4.41009 20.0878 4.5061 20.1023 4.64215L20.3228 7.05557C20.3228 7.0927 20.2938 7.11766 20.23 7.12984C20.169 7.14231 20.1314 7.12375 20.1198 7.07414C19.7601 6.10877 19.2205 5.37255 18.4953 4.86491C17.7701 4.35757 16.9202 4.10376 15.9426 4.10376C14.6547 4.10376 13.6481 4.5557 12.9171 5.459C12.1862 6.36259 11.8207 7.5754 11.8207 9.09772C11.8207 10.2366 12.0237 11.2823 12.424 12.2352C12.8272 13.1884 13.3842 13.9431 14.0949 14.5001C14.8085 15.057 15.6033 15.3355 16.4822 15.3355C18.153 15.3355 19.4206 14.2959 20.288 12.2166C20.2996 12.1673 20.3402 12.1487 20.4069 12.1609C20.4766 12.1734 20.5084 12.198 20.5084 12.2352L20.23 14.6115C20.2068 14.76 20.1777 14.856 20.1487 14.8992C20.1168 14.9428 20.0443 14.9892 19.9341 15.0385C18.8579 15.4718 17.7121 15.6882 16.4996 15.6882C14.9883 15.6882 13.7323 15.3883 12.7315 14.7878C11.7279 14.1877 10.9881 13.4233 10.5124 12.4951C10.0367 11.5668 9.79883 10.6015 9.79883 9.59896C9.79883 8.43575 10.115 7.40222 10.7532 6.49863C11.3914 5.59533 12.2355 4.89596 13.2885 4.4008C14.3385 3.90593 15.4669 3.6582 16.6678 3.6582Z" fill="black"></path>
  <path d="M34.9714 15.2429C35.0091 15.2429 35.0265 15.2801 35.0265 15.3543C35.0265 15.4286 35.0091 15.4657 34.9714 15.4657C34.6001 15.4657 34.31 15.4596 34.0983 15.4471L32.9118 15.4286L31.7226 15.4471C31.5108 15.4596 31.2207 15.4657 30.8494 15.4657C30.8117 15.4657 30.7943 15.4286 30.7943 15.3543C30.7943 15.2801 30.8117 15.2429 30.8494 15.2429C31.2207 15.2429 31.4905 15.2122 31.6588 15.1501C31.8241 15.0883 31.9401 14.9676 32.001 14.7881C32.0619 14.6088 32.0939 14.3333 32.0939 13.962V11.3072H27.3772V13.962C27.3772 14.3333 27.4091 14.6088 27.47 14.7881C27.5338 14.9676 27.6499 15.0883 27.824 15.1501C27.998 15.2122 28.2706 15.2429 28.6419 15.2429C28.6651 15.2429 28.6768 15.2801 28.6768 15.3543C28.6768 15.4286 28.6651 15.4657 28.6419 15.4657C28.2706 15.4657 27.9776 15.4596 27.7688 15.4471L26.5621 15.4286L25.4105 15.4471C25.1871 15.4596 24.8854 15.4657 24.4996 15.4657C24.4764 15.4657 24.4648 15.4286 24.4648 15.3543C24.4648 15.2801 24.4764 15.2429 24.4996 15.2429C24.8709 15.2429 25.1465 15.2122 25.3264 15.1501C25.5062 15.0883 25.628 14.9676 25.689 14.7881C25.7499 14.6088 25.7818 14.3333 25.7818 13.962V8.28109C25.7818 7.90979 25.7499 7.6377 25.689 7.46424C25.628 7.29106 25.5062 7.1704 25.3264 7.10223C25.1465 7.03435 24.8767 7.00012 24.5199 7.00012C24.4938 7.00012 24.4823 6.96298 24.4823 6.88872C24.4823 6.81447 24.4938 6.77734 24.5199 6.77734L25.4105 6.7959C25.9065 6.82085 26.2894 6.83304 26.5621 6.83304C26.8841 6.83304 27.2931 6.82085 27.7862 6.7959L28.6419 6.77734C28.6651 6.77734 28.6768 6.81447 28.6768 6.88872C28.6768 6.96298 28.6651 7.00012 28.6419 7.00012C28.2822 7.00012 28.0124 7.03725 27.8326 7.11151C27.6527 7.18576 27.5338 7.31282 27.47 7.49209C27.4091 7.67165 27.3772 7.94693 27.3772 8.31823V10.8616H32.0939V8.31823C32.0939 7.94693 32.0619 7.67165 32.001 7.49209C31.9401 7.31282 31.8212 7.18576 31.6471 7.11151C31.476 7.03725 31.2091 7.00012 30.8494 7.00012C30.8117 7.00012 30.7943 6.96298 30.7943 6.88872C30.7943 6.81447 30.8117 6.77734 30.8494 6.77734L31.7051 6.7959C32.1983 6.82085 32.6014 6.83304 32.9118 6.83304C33.2077 6.83304 33.6022 6.82085 34.0983 6.7959L34.9714 6.77734C35.0091 6.77734 35.0265 6.81447 35.0265 6.88872C35.0265 6.96298 35.0091 7.00012 34.9714 7.00012C34.6001 7.00012 34.3274 7.03435 34.1534 7.10223C33.9822 7.1704 33.8633 7.29106 33.8024 7.46424C33.7386 7.6377 33.7095 7.90979 33.7095 8.28109V13.962C33.7095 14.3333 33.7386 14.6088 33.8024 14.7881C33.8633 14.9676 33.9822 15.0883 34.1534 15.1501C34.3274 15.2122 34.6001 15.2429 34.9714 15.2429Z" fill="black"></path>
  <path d="M48.5419 15.243C48.5796 15.243 48.5999 15.2801 48.5999 15.3544C48.5999 15.4286 48.5796 15.4657 48.5419 15.4657H45.7949C45.5977 15.4657 45.2408 15.0916 44.7274 14.3426C44.2139 13.5939 43.6164 12.576 42.9376 11.2886C42.6766 11.3258 42.4097 11.3443 42.137 11.3443C41.9398 11.3443 41.7918 11.3382 41.6932 11.3258V13.962C41.6932 14.3333 41.7193 14.6089 41.7773 14.7881C41.8324 14.9677 41.9427 15.0884 42.111 15.1501C42.2763 15.2122 42.546 15.243 42.9173 15.243C42.9434 15.243 42.9551 15.2801 42.9551 15.3544C42.9551 15.4286 42.9434 15.4657 42.9173 15.4657C42.5576 15.4657 42.2734 15.4597 42.0645 15.4472L40.8375 15.4286L39.6888 15.4472C39.4654 15.4597 39.1609 15.4657 38.778 15.4657C38.7519 15.4657 38.7402 15.4286 38.7402 15.3544C38.7402 15.2801 38.7519 15.243 38.778 15.243C39.1493 15.243 39.4219 15.2122 39.5959 15.1501C39.7671 15.0884 39.886 14.9677 39.9469 14.7881C40.0107 14.6089 40.0398 14.3333 40.0398 13.962V8.28112C40.0398 7.90983 40.0107 7.63774 39.9469 7.46427C39.886 7.2911 39.7671 7.17043 39.5959 7.10226C39.4219 7.03439 39.155 7.00016 38.7953 7.00016C38.7721 7.00016 38.7606 6.96302 38.7606 6.88876C38.7606 6.8145 38.7721 6.77738 38.7953 6.77738L39.7062 6.79593C40.1761 6.82088 40.5532 6.83308 40.8375 6.83308C41.0724 6.83308 41.29 6.82698 41.4872 6.81451C41.6874 6.80232 41.8586 6.78985 42.0094 6.77738C42.4155 6.74025 42.7868 6.72168 43.1233 6.72168C44.0371 6.72168 44.7332 6.87657 45.2119 7.18579C45.6876 7.49531 45.9254 7.94087 45.9254 8.52248C45.9254 9.00516 45.7775 9.4571 45.4787 9.87771C45.1828 10.2986 44.7738 10.6328 44.2546 10.8802C44.9218 12.0066 45.499 12.8823 45.9805 13.5072C46.465 14.1323 46.903 14.5778 47.3004 14.8438C47.6949 15.1101 48.1097 15.243 48.5419 15.243ZM41.6932 10.9916C41.8034 11.0041 41.9949 11.0102 42.2675 11.0102C42.9985 11.0102 43.5062 10.8431 43.7904 10.5089C44.0747 10.1748 44.2169 9.67989 44.2169 9.02374C44.2169 7.71201 43.7035 7.05584 42.6766 7.05584C42.2676 7.05584 42.0007 7.13939 41.8789 7.30647C41.7541 7.47356 41.6932 7.81092 41.6932 8.31827V10.9916Z" fill="black"></path>
  <path d="M54.4473 13.962C54.4473 14.3333 54.4763 14.6088 54.5401 14.7881C54.601 14.9676 54.717 15.0883 54.8911 15.1501C55.0651 15.2122 55.3378 15.2429 55.7091 15.2429C55.7323 15.2429 55.7469 15.2801 55.7469 15.3543C55.7469 15.4286 55.7323 15.4657 55.7091 15.4657C55.3378 15.4657 55.0448 15.4596 54.836 15.4471L53.6119 15.4286L52.4603 15.4471C52.2369 15.4596 51.9323 15.4657 51.5494 15.4657C51.5262 15.4657 51.5117 15.4286 51.5117 15.3543C51.5117 15.2801 51.5262 15.2429 51.5494 15.2429C51.9323 15.2429 52.2108 15.2122 52.3849 15.1501C52.5589 15.0883 52.6749 14.9676 52.7387 14.7881C52.7997 14.6088 52.8316 14.3333 52.8316 13.962V8.28109C52.8316 7.90979 52.7997 7.6377 52.7387 7.46424C52.6749 7.29106 52.556 7.1704 52.3761 7.10223C52.1963 7.03435 51.9207 7.00012 51.5494 7.00012C51.5262 7.00012 51.5117 6.96298 51.5117 6.88872C51.5117 6.81447 51.5262 6.77734 51.5494 6.77734L52.4603 6.7959C52.9302 6.82085 53.3131 6.83304 53.6119 6.83304C53.9455 6.83304 54.3603 6.82085 54.8534 6.7959L55.7091 6.77734C55.7323 6.77734 55.7469 6.81447 55.7469 6.88872C55.7469 6.96298 55.7323 7.00012 55.7091 7.00012C55.3494 7.00012 55.0796 7.03725 54.8998 7.11151C54.7228 7.18576 54.601 7.31282 54.5401 7.49209C54.4763 7.67165 54.4473 7.94693 54.4473 8.31823V13.962Z" fill="black"></path>
  <path d="M61.5018 8.1884C61.5018 8.69604 61.6788 9.10736 62.0385 9.42296C62.3982 9.73857 62.9377 10.0759 63.6542 10.4347C64.185 10.7196 64.6115 10.9638 64.9247 11.1681C65.2409 11.3723 65.5107 11.6354 65.7341 11.9571C65.9574 12.2791 66.0676 12.6564 66.0676 13.0895C66.0676 13.5722 65.9284 14.0117 65.6499 14.4076C65.3715 14.8039 64.9857 15.1163 64.4896 15.3452C63.9936 15.5743 63.4308 15.6886 62.8014 15.6886C62.2676 15.6886 61.76 15.6236 61.2785 15.4937C60.794 15.3637 60.4373 15.2059 60.2023 15.0203C60.1008 14.971 60.0456 14.841 60.034 14.6304L59.9238 12.6254V12.6068C59.9238 12.5575 59.9529 12.5297 60.0167 12.5233C60.0776 12.5172 60.1211 12.539 60.1443 12.5883C60.4808 13.3309 60.9013 13.9684 61.409 14.5004C61.9166 15.0327 62.4852 15.2987 63.1147 15.2987C63.5005 15.2987 63.8282 15.1813 64.1009 14.946C64.3707 14.711 64.507 14.3583 64.507 13.8878C64.507 13.3187 64.3185 12.8575 63.9414 12.5047C63.5643 12.152 63.0102 11.7839 62.2792 11.4001C61.7861 11.128 61.3916 10.8896 61.1016 10.6854C60.8115 10.4812 60.562 10.2305 60.3589 9.9335C60.1559 9.63646 60.0514 9.28373 60.0514 8.8753C60.0514 8.15765 60.3532 7.59142 60.9536 7.17661C61.5541 6.76209 62.2793 6.55469 63.135 6.55469C63.5063 6.55469 63.8863 6.59501 64.275 6.67536C64.6666 6.75601 65.0031 6.8581 65.2873 6.98168C65.386 7.03128 65.4556 7.08089 65.4933 7.1302C65.5281 7.1798 65.5542 7.24797 65.5658 7.33441L65.6035 9.04238C65.6035 9.09198 65.5716 9.12302 65.5107 9.13521C65.4498 9.14768 65.4063 9.13521 65.3802 9.09808C65.3077 8.86312 65.1568 8.57536 64.9364 8.23481C64.713 7.89455 64.4171 7.59142 64.0545 7.32513C63.689 7.05913 63.2771 6.92598 62.8188 6.92598C62.3866 6.92598 62.0588 7.04375 61.8355 7.27871C61.6121 7.51396 61.5018 7.81711 61.5018 8.1884Z" fill="black"></path>
  <path d="M72.2115 7.11083C71.1121 7.11083 70.3492 7.84124 69.9286 9.30149C69.917 9.33862 69.8793 9.35719 69.8184 9.35719C69.7545 9.35719 69.7256 9.33862 69.7256 9.30149C69.7749 8.91801 69.8271 8.41356 69.8822 7.78845C69.9374 7.16362 69.9663 6.69022 69.9663 6.36823C69.9663 6.30645 70.0011 6.27541 70.0679 6.27541C70.1375 6.27541 70.1694 6.30645 70.1694 6.36823C70.1694 6.52923 70.2622 6.63134 70.4479 6.67456C70.6335 6.71808 70.8685 6.73954 71.1556 6.73954C72.2202 6.76449 73.1542 6.77667 73.9578 6.77667L75.5735 6.7581C75.7824 6.74591 76.0666 6.73954 76.4263 6.73954C76.8962 6.73954 77.2502 6.71169 77.4851 6.65599C77.7201 6.6003 77.868 6.47963 77.9319 6.29398C77.9435 6.25685 77.984 6.23828 78.0508 6.23828C78.1204 6.23828 78.1523 6.25685 78.1523 6.29398C78.1523 6.36824 78.1407 6.55388 78.1175 6.85092C78.103 7.16043 78.0856 7.54711 78.0595 8.01123C78.0363 8.47535 78.016 8.90553 78.0044 9.30149C78.0044 9.33862 77.9666 9.35719 77.8941 9.35719C77.8187 9.35719 77.781 9.33862 77.781 9.30149C77.7201 8.63315 77.4996 8.10116 77.1225 7.70492C76.7454 7.30896 76.2784 7.11083 75.7214 7.11083C75.3501 7.11083 75.1007 7.19148 74.9701 7.35218C74.8396 7.51317 74.7758 7.82267 74.7758 8.28041V13.9613C74.7758 14.3326 74.8077 14.6081 74.8773 14.7874C74.9441 14.967 75.0775 15.0876 75.2747 15.1494C75.4749 15.2115 75.7882 15.2422 76.2233 15.2422C76.261 15.2422 76.2784 15.2794 76.2784 15.3536C76.2784 15.4279 76.261 15.465 76.2233 15.465C75.8259 15.465 75.5097 15.4589 75.2747 15.4465L73.9201 15.4279L72.6205 15.4465C72.3856 15.4589 72.0578 15.465 71.6371 15.465C71.611 15.465 71.5995 15.4279 71.5995 15.3536C71.5995 15.2794 71.611 15.2422 71.6371 15.2422C72.0694 15.2422 72.3885 15.2115 72.5944 15.1494C72.7975 15.0876 72.9338 14.967 73.0006 14.7874C73.0702 14.6081 73.1049 14.3326 73.1049 13.9613V8.24328C73.1049 7.90912 73.0847 7.66778 73.0469 7.51926C73.0121 7.37074 72.9309 7.26573 72.8062 7.20366C72.6843 7.14187 72.4842 7.11083 72.2115 7.11083Z" fill="black"></path>
  <path d="M84.7432 13.962C84.7432 14.3333 84.7751 14.6088 84.836 14.7881C84.8998 14.9676 85.0159 15.0883 85.19 15.1501C85.364 15.2122 85.6366 15.2429 86.0079 15.2429C86.0311 15.2429 86.0428 15.2801 86.0428 15.3543C86.0428 15.4286 86.0311 15.4657 86.0079 15.4657C85.6366 15.4657 85.3437 15.4596 85.1348 15.4471L83.9078 15.4286L82.7591 15.4471C82.5357 15.4596 82.2312 15.4657 81.8483 15.4657C81.8222 15.4657 81.8105 15.4286 81.8105 15.3543C81.8105 15.2801 81.8222 15.2429 81.8483 15.2429C82.2312 15.2429 82.5096 15.2122 82.6837 15.1501C82.8577 15.0883 82.9737 14.9676 83.0376 14.7881C83.0985 14.6088 83.1304 14.3333 83.1304 13.962V8.28109C83.1304 7.90979 83.0985 7.6377 83.0376 7.46424C82.9737 7.29106 82.8548 7.1704 82.675 7.10223C82.4951 7.03435 82.2196 7.00012 81.8483 7.00012C81.8222 7.00012 81.8105 6.96298 81.8105 6.88872C81.8105 6.81447 81.8222 6.77734 81.8483 6.77734L82.7591 6.7959C83.229 6.82085 83.6119 6.83304 83.9078 6.83304C84.2443 6.83304 84.6562 6.82085 85.1522 6.7959L86.0079 6.77734C86.0311 6.77734 86.0428 6.81447 86.0428 6.88872C86.0428 6.96298 86.0311 7.00012 86.0079 7.00012C85.6482 7.00012 85.3785 7.03725 85.1986 7.11151C85.0188 7.18576 84.8998 7.31282 84.836 7.49209C84.7751 7.67165 84.7432 7.94693 84.7432 8.31823V13.962Z" fill="black"></path>
  <path d="M99.5024 6.77734C99.5401 6.77734 99.5604 6.81447 99.5604 6.88872C99.5604 6.96298 99.5401 7.00012 99.5024 7.00012C99.0208 7.00012 98.667 7.1643 98.4465 7.49209C98.2232 7.82017 98.11 8.33679 98.11 9.04225V15.6699C98.11 15.6949 98.081 15.7134 98.0172 15.7256C97.9563 15.7381 97.9127 15.732 97.8895 15.7071L91.4847 8.29966C91.4586 8.275 91.4469 8.26253 91.4469 8.26253V13.2194C91.4469 13.9248 91.5543 14.4385 91.7719 14.7602C91.9865 15.0822 92.3317 15.2429 92.8016 15.2429C92.8278 15.2429 92.8393 15.2801 92.8393 15.3543C92.8393 15.4286 92.8278 15.4657 92.8016 15.4657C92.5058 15.4657 92.2766 15.4596 92.1141 15.4471L91.2787 15.4286L90.4259 15.4471C90.2518 15.4596 90.0111 15.4657 89.7007 15.4657C89.6775 15.4657 89.663 15.4286 89.663 15.3543C89.663 15.2801 89.6775 15.2429 89.7007 15.2429C90.1851 15.2429 90.5332 15.0822 90.7508 14.7602C90.9654 14.4385 91.0756 13.9248 91.0756 13.2194V7.8541C90.7653 7.54488 90.4955 7.32501 90.2664 7.19505C90.0372 7.0651 89.8138 7.00012 89.5905 7.00012C89.5644 7.00012 89.5527 6.96298 89.5527 6.88872C89.5527 6.81447 89.5644 6.77734 89.5905 6.77734L90.629 6.7959C90.7421 6.7959 90.8813 6.793 91.0467 6.78662C91.2149 6.78053 91.563 6.77734 92.0967 6.77734C92.1953 6.77734 92.2824 6.80838 92.3549 6.87017C92.4303 6.93225 92.529 7.05581 92.6537 7.24146L93.0424 7.74272L97.7387 13.1637V9.04225C97.7387 8.32461 97.6343 7.8048 97.4254 7.48281C97.2137 7.16112 96.8743 7.00012 96.4044 7.00012C96.3667 7.00012 96.3464 6.96298 96.3464 6.88872C96.3464 6.81447 96.3667 6.77734 96.4044 6.77734L97.0889 6.7959C97.437 6.82085 97.7155 6.83304 97.9244 6.83304C98.1361 6.83304 98.4262 6.82085 98.7975 6.7959L99.5024 6.77734Z" fill="black"></path>
  <path d="M110.122 12.9966C110.134 12.9595 110.171 12.9409 110.235 12.9409C110.296 12.9409 110.328 12.9595 110.328 12.9966C110.241 13.8877 110.198 14.6181 110.198 15.1872C110.198 15.2864 110.177 15.3575 110.142 15.4007C110.105 15.4442 110.029 15.4657 109.919 15.4657H103.012C102.986 15.4657 102.975 15.4286 102.975 15.3543C102.975 15.2801 102.986 15.2429 103.012 15.2429C103.384 15.2429 103.656 15.2122 103.83 15.1501C104.001 15.0883 104.12 14.9676 104.181 14.7881C104.245 14.6088 104.274 14.3333 104.274 13.962V8.28109C104.274 7.90979 104.245 7.6377 104.181 7.46424C104.12 7.29106 104.001 7.1704 103.83 7.10223C103.656 7.03435 103.384 7.00012 103.012 7.00012C102.986 7.00012 102.975 6.96298 102.975 6.88872C102.975 6.81447 102.986 6.77734 103.012 6.77734H109.585C109.707 6.77734 109.771 6.82694 109.771 6.92585L109.788 8.07688C109.8 8.31213 109.806 8.60918 109.806 8.968C109.806 9.00513 109.774 9.0237 109.704 9.0237C109.638 9.0237 109.597 9.00513 109.585 8.968C109.423 8.41105 109.121 7.94694 108.675 7.57564C108.228 7.20434 107.752 7.01868 107.245 7.01868H106.986C106.664 7.01868 106.427 7.0529 106.27 7.12078C106.116 7.18895 106.012 7.30964 105.954 7.48281C105.899 7.65628 105.872 7.92836 105.872 8.29966V10.8245C106.899 10.7998 107.636 10.7595 108.08 10.7038C108.527 10.6481 108.779 10.6203 108.843 10.6203C108.878 10.6203 108.907 10.6638 108.924 10.7502C108.944 10.837 108.953 10.9298 108.953 11.0287C108.953 11.1401 108.944 11.2454 108.924 11.3443C108.907 11.4435 108.878 11.4928 108.843 11.4928C108.779 11.4928 108.527 11.4589 108.08 11.3907C107.636 11.3228 106.899 11.2764 105.872 11.2515V13.8877C105.872 14.2468 105.899 14.516 105.954 14.6953C106.012 14.8748 106.116 14.9987 106.27 15.0666C106.427 15.1347 106.664 15.1687 106.986 15.1687H107.413C107.97 15.1687 108.501 14.9645 109.008 14.556C109.516 14.1476 109.887 13.6278 110.122 12.9966Z" fill="black"></path>
  <path d="M63.9616 34.5717C63.9877 34.5717 63.9994 34.6088 63.9994 34.6831C63.9994 34.7573 63.9877 34.7945 63.9616 34.7945C63.5555 34.7945 63.2277 34.7884 62.9783 34.7759L61.641 34.7573L60.3415 34.7759C60.121 34.7884 59.8048 34.7945 59.3958 34.7945C59.3697 34.7945 59.3581 34.7573 59.3581 34.6831C59.3581 34.6088 59.3697 34.5717 59.3958 34.5717C59.9412 34.5717 60.3067 34.5099 60.4923 34.386C60.678 34.2625 60.7708 34.0026 60.7708 33.6063L60.7505 33.2907L60.3792 25.4192L56.4254 34.6645C56.3993 34.7141 56.35 34.7388 56.2775 34.7388C56.2137 34.7388 56.1586 34.7141 56.1093 34.6645L51.4681 25.4935L51.3027 32.5481C51.2882 33.2043 51.4159 33.7055 51.6827 34.0519C51.9496 34.3985 52.347 34.5717 52.8807 34.5717C52.9155 34.5717 52.9358 34.6088 52.9358 34.6831C52.9358 34.7573 52.9155 34.7945 52.8807 34.7945C52.5442 34.7945 52.2861 34.7884 52.1004 34.7759L51.0793 34.7573L49.9828 34.7759C49.7972 34.7884 49.539 34.7945 49.2026 34.7945C49.1677 34.7945 49.1475 34.7573 49.1475 34.6831C49.1475 34.6088 49.1677 34.5717 49.2026 34.5717C49.7102 34.5717 50.1046 34.3985 50.3831 34.0519C50.6616 33.7055 50.8066 33.2043 50.8182 32.5481L50.9865 24.5652C50.7631 24.1693 50.5195 23.8783 50.2526 23.6927C49.9857 23.507 49.6812 23.4142 49.3331 23.4142C49.2954 23.4142 49.278 23.3771 49.278 23.3028C49.278 23.2285 49.2954 23.1914 49.3331 23.1914L50.1308 23.21C50.2932 23.2225 50.5021 23.2286 50.7631 23.2286L51.6363 23.21C51.7349 23.1978 51.8596 23.1914 52.0076 23.1914C52.1671 23.1914 52.2977 23.2503 52.3963 23.3678C52.4949 23.4856 52.6515 23.7484 52.8604 24.1568L56.9447 32.1211L60.6402 23.6555C60.7128 23.4824 60.794 23.3617 60.881 23.2935C60.9681 23.2256 61.0724 23.1914 61.1972 23.1914C61.2842 23.1914 61.3945 23.1978 61.5308 23.21C61.6671 23.2225 61.8354 23.2286 62.0326 23.2286L63.0334 23.21C63.1958 23.1978 63.4366 23.1914 63.7586 23.1914C63.7847 23.1914 63.7963 23.2285 63.7963 23.3028C63.7963 23.3771 63.7847 23.4142 63.7586 23.4142C63.1639 23.4142 62.7346 23.5227 62.4677 23.7391C62.2009 23.9558 62.0819 24.3117 62.1051 24.8065L62.5345 33.2907C62.5577 33.6745 62.6041 33.953 62.6737 34.1261C62.7404 34.2996 62.8681 34.4171 63.0537 34.4789C63.2394 34.5409 63.541 34.5717 63.9616 34.5717Z" fill="black"></path>
  <path d="M72.7456 25.8838C73.201 25.8838 73.7 25.9334 74.2395 26.0323C74.7762 26.1315 75.2199 26.2615 75.5651 26.4222C75.6521 26.4593 75.7073 26.4996 75.7334 26.5428C75.7595 26.5863 75.7711 26.6513 75.7711 26.7378L75.9017 28.65C75.9017 28.6871 75.8668 28.712 75.7972 28.7242C75.7305 28.7367 75.6899 28.7181 75.6783 28.6685C75.2954 27.8517 74.84 27.2454 74.312 26.8492C73.787 26.4532 73.172 26.2551 72.4671 26.2551C71.5505 26.2551 70.8282 26.6142 70.3032 27.3319C69.7781 28.0498 69.5142 28.9841 69.5142 30.1351C69.5142 30.9027 69.636 31.6328 69.8768 32.3258C70.1175 33.0191 70.4946 33.5821 71.008 34.0152C71.5215 34.4486 72.1568 34.665 72.911 34.665C73.5926 34.665 74.1641 34.4671 74.6282 34.0709C75.0923 33.6749 75.5042 33.0498 75.8639 32.1959C75.8755 32.1465 75.9133 32.128 75.9742 32.1402C76.038 32.1526 76.0669 32.1773 76.0669 32.2144L75.8813 34.1823C75.8697 34.2815 75.8523 34.3494 75.8262 34.3865C75.8001 34.4236 75.7334 34.4672 75.6231 34.5165C74.6688 34.8506 73.6796 35.0177 72.6527 35.0177C71.475 35.0177 70.5091 34.7827 69.7549 34.3122C69.0007 33.842 68.4525 33.2541 68.1131 32.5486C67.7708 31.8431 67.6025 31.1316 67.6025 30.4136C67.6025 29.5721 67.8288 28.8049 68.2784 28.1116C68.731 27.4186 69.3488 26.8741 70.1349 26.4779C70.921 26.0819 71.7912 25.8838 72.7456 25.8838Z" fill="black"></path>
  <path d="M83.5474 33.2907C83.5474 33.6745 83.5793 33.953 83.6402 34.1261C83.704 34.2996 83.8288 34.4171 84.0231 34.4789C84.2146 34.5409 84.5191 34.5717 84.9397 34.5717C84.9774 34.5717 84.9977 34.6088 84.9977 34.6831C84.9977 34.7573 84.9774 34.7945 84.9397 34.7945C84.5452 34.7945 84.229 34.7884 83.9941 34.7759L82.6191 34.7573L81.2847 34.7759C81.0498 34.7884 80.7278 34.7945 80.3188 34.7945C80.2811 34.7945 80.2637 34.7573 80.2637 34.6831C80.2637 34.6088 80.2811 34.5717 80.3188 34.5717C80.7395 34.5717 81.044 34.5409 81.2384 34.4789C81.4298 34.4171 81.5633 34.2964 81.6358 34.1168C81.7112 33.9376 81.7489 33.662 81.7489 33.2907V24.6952C81.7489 24.3239 81.7112 24.0518 81.6358 23.8783C81.5633 23.7051 81.4298 23.5845 81.2384 23.5163C81.044 23.4484 80.7395 23.4142 80.3188 23.4142C80.2811 23.4142 80.2637 23.3771 80.2637 23.3028C80.2637 23.2285 80.2811 23.1914 80.3188 23.1914L81.2847 23.21C81.8272 23.2349 82.2739 23.2471 82.6191 23.2471C83.0049 23.2471 83.4691 23.2349 84.0115 23.21L84.9397 23.1914C84.9774 23.1914 84.9977 23.2285 84.9977 23.3028C84.9977 23.3771 84.9774 23.4142 84.9397 23.4142C84.5336 23.4142 84.2319 23.4513 84.0405 23.5256C83.849 23.5998 83.7185 23.7269 83.6518 23.9062C83.5822 24.0857 83.5474 24.361 83.5474 24.7323V33.2907Z" fill="black"></path>
  <path d="M98.5854 26.1064C98.6231 26.1064 98.6434 26.1436 98.6434 26.2178C98.6434 26.2921 98.6231 26.3292 98.5854 26.3292C98.1038 26.3292 97.7499 26.4934 97.5295 26.8212C97.3061 27.1493 97.193 27.6659 97.193 28.3714V34.999C97.193 35.024 97.164 35.0425 97.1001 35.0547C97.0392 35.0672 96.9957 35.0611 96.9725 35.0362L90.5676 27.6288C90.5415 27.6041 90.5299 27.5916 90.5299 27.5916V32.5485C90.5299 33.2539 90.6372 33.7676 90.8548 34.0893C91.0695 34.4113 91.4147 34.572 91.8846 34.572C91.9078 34.572 91.9223 34.6092 91.9223 34.6834C91.9223 34.7577 91.9078 34.7948 91.8846 34.7948C91.5887 34.7948 91.3596 34.7887 91.1971 34.7762L90.3617 34.7577L89.5089 34.7762C89.3348 34.7887 89.0941 34.7948 88.7837 34.7948C88.7605 34.7948 88.7459 34.7577 88.7459 34.6834C88.7459 34.6092 88.7605 34.572 88.7837 34.572C89.2681 34.572 89.6162 34.4113 89.8337 34.0893C90.0484 33.7676 90.1586 33.2539 90.1586 32.5485V27.1832C89.8483 26.874 89.5785 26.6541 89.3493 26.5242C89.1202 26.3942 88.8968 26.3292 88.6734 26.3292C88.6473 26.3292 88.6357 26.2921 88.6357 26.2178C88.6357 26.1436 88.6473 26.1064 88.6734 26.1064L89.7119 26.125C89.825 26.125 89.9643 26.1221 90.1296 26.1157C90.2979 26.1096 90.646 26.1064 91.1797 26.1064C91.2783 26.1064 91.3653 26.1375 91.4379 26.1993C91.5133 26.2613 91.6119 26.3849 91.7366 26.5706L92.1254 27.0718L96.8217 32.4928V28.3714C96.8217 27.6537 96.7172 27.1339 96.5084 26.8119C96.2966 26.4902 95.9573 26.3292 95.4874 26.3292C95.4497 26.3292 95.4293 26.2921 95.4293 26.2178C95.4293 26.1436 95.4497 26.1064 95.4874 26.1064L96.1719 26.125C96.52 26.1499 96.7985 26.1621 97.0074 26.1621C97.2191 26.1621 97.5092 26.1499 97.8805 26.125L98.5854 26.1064Z" fill="black"></path>
  <path d="M111.694 26.1064C111.731 26.1064 111.749 26.1436 111.749 26.2178C111.749 26.2921 111.731 26.3292 111.694 26.3292C111.209 26.3292 110.858 26.4934 110.635 26.8212C110.412 27.1493 110.301 27.6659 110.301 28.3714V34.999C110.301 35.024 110.27 35.0425 110.209 35.0547C110.145 35.0672 110.104 35.0611 110.078 35.0362L103.673 27.6288C103.647 27.6041 103.635 27.5916 103.635 27.5916V32.5485C103.635 33.2539 103.746 33.7676 103.96 34.0893C104.178 34.4113 104.52 34.572 104.99 34.572C105.016 34.572 105.028 34.6092 105.028 34.6834C105.028 34.7577 105.016 34.7948 104.99 34.7948C104.694 34.7948 104.465 34.7887 104.306 34.7762L103.47 34.7577L102.614 34.7762C102.44 34.7887 102.2 34.7948 101.892 34.7948C101.866 34.7948 101.854 34.7577 101.854 34.6834C101.854 34.6092 101.866 34.572 101.892 34.572C102.374 34.572 102.725 34.4113 102.939 34.0893C103.157 33.7676 103.264 33.2539 103.264 32.5485V27.1832C102.957 26.874 102.687 26.6541 102.458 26.5242C102.229 26.3942 102.002 26.3292 101.779 26.3292C101.756 26.3292 101.741 26.2921 101.741 26.2178C101.741 26.1436 101.756 26.1064 101.779 26.1064L102.82 26.125C102.931 26.125 103.07 26.1221 103.238 26.1157C103.403 26.1096 103.754 26.1064 104.285 26.1064C104.384 26.1064 104.471 26.1375 104.546 26.1993C104.619 26.2613 104.72 26.3849 104.842 26.5706L105.234 27.0718L109.93 32.4928V28.3714C109.93 27.6537 109.826 27.1339 109.614 26.8119C109.402 26.4902 109.063 26.3292 108.593 26.3292C108.555 26.3292 108.538 26.2921 108.538 26.2178C108.538 26.1436 108.555 26.1064 108.593 26.1064L109.28 26.125C109.625 26.1499 109.904 26.1621 110.116 26.1621C110.325 26.1621 110.618 26.1499 110.989 26.125L111.694 26.1064Z" fill="black"></path>
  <path d="M122.314 32.3257C122.325 32.2886 122.363 32.27 122.424 32.27C122.485 32.27 122.517 32.2886 122.517 32.3257C122.43 33.2168 122.386 33.9472 122.386 34.5163C122.386 34.6155 122.369 34.6866 122.331 34.7298C122.293 34.7733 122.221 34.7948 122.108 34.7948H115.201C115.178 34.7948 115.166 34.7577 115.166 34.6834C115.166 34.6092 115.178 34.572 115.201 34.572C115.572 34.572 115.845 34.5413 116.019 34.4792C116.193 34.4174 116.309 34.2967 116.373 34.1172C116.434 33.9379 116.466 33.6624 116.466 33.2911V27.6102C116.466 27.2389 116.434 26.9668 116.373 26.7933C116.309 26.6202 116.193 26.4995 116.019 26.4313C115.845 26.3635 115.572 26.3292 115.201 26.3292C115.178 26.3292 115.166 26.2921 115.166 26.2178C115.166 26.1436 115.178 26.1064 115.201 26.1064H121.774C121.899 26.1064 121.96 26.156 121.96 26.255L121.977 27.406C121.992 27.6412 121.997 27.9383 121.997 28.2971C121.997 28.3342 121.962 28.3528 121.896 28.3528C121.826 28.3528 121.786 28.3342 121.774 28.2971C121.612 27.7402 121.31 27.276 120.863 26.9047C120.419 26.5334 119.944 26.3478 119.436 26.3478H119.175C118.853 26.3478 118.615 26.382 118.461 26.4499C118.305 26.5181 118.2 26.6387 118.145 26.8119C118.09 26.9854 118.061 27.2575 118.061 27.6288V30.1536C119.088 30.1289 119.825 30.0886 120.271 30.0329C120.715 29.9772 120.97 29.9494 121.031 29.9494C121.069 29.9494 121.095 29.9929 121.115 30.0793C121.133 30.1661 121.142 30.2589 121.142 30.3578C121.142 30.4692 121.133 30.5745 121.115 30.6734C121.095 30.7726 121.069 30.8219 121.031 30.8219C120.97 30.8219 120.715 30.788 120.271 30.7198C119.825 30.6519 119.088 30.6055 118.061 30.5806V33.2168C118.061 33.5759 118.09 33.8451 118.145 34.0244C118.2 34.2039 118.305 34.3278 118.461 34.3957C118.615 34.4638 118.853 34.4978 119.175 34.4978H119.601C120.158 34.4978 120.692 34.2936 121.2 33.8851C121.707 33.4767 122.076 32.9569 122.314 32.3257Z" fill="black"></path>
  <path d="M128.309 27.5175C128.309 28.0251 128.489 28.4365 128.846 28.7521C129.206 29.0677 129.745 29.405 130.462 29.7638C130.996 30.0487 131.419 30.2929 131.735 30.4972C132.049 30.7014 132.318 30.9645 132.542 31.2862C132.765 31.6082 132.875 31.9855 132.875 32.4186C132.875 32.9013 132.736 33.3408 132.458 33.7367C132.179 34.133 131.793 34.4454 131.297 34.6743C130.804 34.9034 130.238 35.0177 129.609 35.0177C129.075 35.0177 128.568 34.9527 128.086 34.8228C127.605 34.6928 127.245 34.535 127.01 34.3494C126.911 34.3001 126.853 34.1701 126.842 33.9595L126.731 31.9545V31.9359C126.731 31.8866 126.76 31.8588 126.824 31.8524C126.885 31.8463 126.929 31.8681 126.955 31.9174C127.288 32.66 127.709 33.2976 128.217 33.8296C128.724 34.3618 129.293 34.6278 129.925 34.6278C130.308 34.6278 130.636 34.5104 130.909 34.2751C131.181 34.0401 131.317 33.6874 131.317 33.2169C131.317 32.6478 131.129 32.1866 130.749 31.8338C130.372 31.4811 129.818 31.113 129.09 30.7292C128.594 30.4571 128.199 30.2187 127.909 30.0145C127.619 29.8103 127.373 29.5596 127.167 29.2626C126.964 28.9656 126.862 28.6128 126.862 28.2044C126.862 27.4868 127.161 26.9205 127.761 26.5057C128.362 26.0912 129.09 25.8838 129.943 25.8838C130.314 25.8838 130.694 25.9241 131.085 26.0045C131.474 26.0851 131.811 26.1872 132.095 26.3108C132.194 26.3604 132.263 26.41 132.301 26.4593C132.339 26.5089 132.362 26.5771 132.373 26.6635L132.411 28.3715C132.411 28.4211 132.382 28.4521 132.318 28.4643C132.257 28.4768 132.214 28.4643 132.188 28.4272C132.115 28.1922 131.967 27.9045 131.744 27.5639C131.521 27.2236 131.228 26.9205 130.862 26.6542C130.497 26.3882 130.085 26.2551 129.626 26.2551C129.194 26.2551 128.866 26.3728 128.643 26.6078C128.42 26.8431 128.309 27.1462 128.309 27.5175Z" fill="black"></path>
  <path d="M8.57227 29.0811C11.8255 31.1544 21.3353 51.49 22.5866 57.2085C22.3989 62.1447 21.8355 65.4209 20.9596 70.121H32.0333C31.0323 64.6387 30.4068 60.4403 30.2817 54.6259C32.9093 46.325 37.9143 34.2461 43.1071 29.0811H31.6582C34.8489 34.2461 32.9718 43.558 29.5308 52.7813C26.5278 46.6054 21.9608 37.1016 22.4613 29.0811H8.57227Z" fill="black"></path>
  <path d="M49.1546 67.0615C55.2747 67.0615 58.6691 62.4328 58.6691 56.4567C58.6691 50.4754 55.2747 45.8828 49.1546 45.8828C43.086 45.8828 39.7432 50.4754 39.7432 56.4567C39.7432 62.4328 43.086 67.0615 49.1546 67.0615ZM50.8005 47.1017C54.9148 46.6183 52.4974 65.3283 47.7659 65.8734C42.983 66.4546 45.8118 47.6828 50.8005 47.1017Z" fill="black"></path>
  <path d="M67.3013 60.6003C62.827 61.4026 61.6953 64.5861 62.9811 66.4478C63.9068 67.8621 65.5526 68.1861 66.9412 68.1861C68.1755 68.1861 69.2041 67.9598 69.5127 67.8981C70.2327 67.8004 70.8501 67.7336 71.5186 67.7336C73.2158 67.7336 74.9643 68.1553 76.8158 69.2764C78.5129 70.2742 79.13 71.6267 79.0271 72.8456C78.9243 74.4194 77.587 75.7719 75.5813 75.7719C72.8041 75.7719 73.8842 71.9456 75.9414 71.4982C75.4785 70.0479 73.113 69.0553 71.0043 69.0553C69.77 69.0553 68.5869 69.3741 67.8669 70.0839C65.1411 72.717 67.5585 76.7697 73.9872 76.7697C79.3358 76.7697 82.8844 73.1336 83.2444 69.6004C83.5016 66.7409 81.7017 63.9432 76.9187 63.074C75.8901 62.8837 74.8615 62.786 73.73 62.786C71.8271 62.786 69.667 63.074 66.6841 63.8455C66.0669 64.0049 65.5526 64.0717 65.1412 64.0717C63.3412 64.0717 64.164 62.5906 65.9126 61.9478C67.1984 61.4695 68.5355 61.4026 69.5127 61.4335C70.4899 61.6598 71.5701 61.7883 72.8044 61.7883C85.9189 61.8552 86.6388 46.7144 73.4729 46.7452C71.3128 45.1406 73.0101 43.2737 74.6044 44.4309C75.0673 44.7549 75.3759 45.4286 75.2217 46.5549C82.3189 46.4264 83.5014 40.7999 77.6384 40.6714C74.7584 40.6405 72.7529 42.1166 71.7758 44.2046C71.3644 45.1046 71.5184 46.1332 72.0842 46.7761C62.4669 47.6453 60.6669 57.2265 67.3013 60.6003ZM74.3985 47.7121C77.2785 48.3858 75.17 61.1454 71.6728 60.7597C68.0728 60.374 70.6956 46.8429 74.3985 47.7121Z" fill="black"></path>
  <path d="M99.116 65.0308C99.0645 65.9925 99.116 66.9286 99.3731 67.9212H107.859C105.03 62.7165 105.699 59.2451 106.162 56.0924C107.088 50.0186 103.179 47.2568 98.8076 47.2568C96.2361 47.2568 93.5618 48.1877 91.6075 49.9209C89.4989 51.7209 90.8361 54.1998 93.7676 53.8758C95.3619 53.6855 97.2647 52.8781 97.5219 49.6638C97.5733 48.7329 98.139 48.2854 98.8076 48.2854C99.7333 48.2854 100.916 49.1854 101.43 50.79C101.996 52.7495 101.585 54.5495 101.019 55.7427C99.7332 54.745 98.1903 54.2924 96.6475 54.2924C92.7388 54.2924 88.6246 57.0593 88.0074 61.3331C87.2874 66.1571 90.3215 68.6 93.4587 68.6C95.6188 68.6 97.9331 67.4068 99.116 65.0308ZM94.5903 60.433C95.3103 57.445 97.2131 55.7735 98.6017 55.7735C99.476 55.7735 100.145 56.4473 100.145 57.9284C99.5788 63.6165 97.7276 65.9308 96.2361 65.9308C94.7961 65.9308 93.716 63.7759 94.5903 60.433Z" fill="black"></path>
</svg>
